<?xml version="1.0" encoding="utf-8"?>
<!DOCTYPE svg PUBLIC "-//W3C//DTD SVG 1.1//EN" "http://www.w3.org/Graphics/SVG/1.1/DTD/svg11.dtd">
<svg version="1.1" xmlns="http://www.w3.org/2000/svg" width="256px" height="256px" viewBox="0 0 256 256" preserveAspectRatio="xMidYMid meet">
 <g fill="#000000">
  <path d="M89 223.5 c0 -0.2 0.9 -1.9 2 -3.7 1.9 -3.1 2 -5.1 2 -40.9 l0 -37.6 5.7 -0.7 c3.1 -0.4 6.7 -0.9 8 -1.2 1.7 -0.5 2.3 -0.2 2.3 1.1 0 1.6 0.9 1.7 8.6 1.2 l8.5 -0.5 2.7 5.4 c1.4 2.9 2.3 5.7 1.9 6 -0.4 0.4 -5.4 1.2 -11.2 1.7 l-10.5 1 0 30.6 c0 28.8 0.1 30.8 2 33.9 1.1 1.8 2 3.5 2 3.7 0 0.3 -5.4 0.5 -12 0.5 -6.6 0 -12 -0.2 -12 -0.5z"/>
  <path d="M169.4 220.8 c0.9 -1.3 2.8 -4.7 4.3 -7.7 2.4 -5 2.5 -6.1 2 -15 -0.9 -15.5 -5.7 -30 -14.1 -43.1 -2.6 -4 -5.6 -7.4 -6.7 -7.7 -1.2 -0.3 -3.2 -3 -5 -6.5 -1.7 -3.3 -2.9 -6.1 -2.7 -6.2 14 -6.6 23.5 -17.8 27.3 -32.1 2.9 -11.3 1.4 -24.6 -3.6 -31.7 -1.1 -1.4 -1.9 -3.3 -1.9 -4.2 0 -0.9 -1.1 -4.4 -2.5 -7.8 -1.4 -3.4 -2.3 -6.3 -2 -6.6 1.1 -1.2 14.1 6.3 19 10.9 8.1 7.7 11.8 15.7 12.3 27 0.5 10.5 -1.7 18.9 -7.5 28.7 -4 6.7 -13.5 17 -18.4 19.9 -1.6 1 -2.9 2.1 -2.9 2.6 0 0.4 2.6 5.4 5.9 11 12.1 21 16.1 31.6 18.6 49.7 1 7 2.5 13.4 3.9 16.3 l2.3 4.7 -15 0 -14.9 0 1.6 -2.2z"/>
  <path d="M60 201.8 c1.9 -4.1 2 -7.4 2 -83.8 0 -68.6 -0.2 -79.9 -1.5 -82.4 -0.8 -1.5 -1.5 -3 -1.5 -3.3 0 -0.3 15 -0.3 33.3 0 26.2 0.3 34.3 0.8 38.6 2 21.8 6.4 33.4 20.9 33.3 41.6 -0.2 16.9 -9.7 34.4 -24.1 44.2 -2.8 1.9 -5.1 3.9 -5.1 4.4 0 0.6 2.1 4.2 4.6 8 5.9 9.1 11.6 21.1 15.3 32.2 2.9 8.6 6.1 23.9 6.1 29.3 0 1.4 1.1 4.8 2.4 7.3 l2.3 4.7 -14.9 0 -14.8 0 3.5 -5.1 c4.2 -6.1 5 -9.8 4.2 -19.8 -1.3 -16.3 -7.8 -34.7 -16.4 -46.4 -2.8 -3.8 -4.1 -4.8 -5.7 -4.4 -1.2 0.3 -6.6 1.7 -12.1 3.1 -6 1.6 -14.4 3 -21 3.4 l-11 0.7 0 30.5 c0 27.1 0.2 30.9 1.8 33.9 0.9 1.9 1.7 3.6 1.7 3.8 0 0.1 -5.2 0.3 -11.5 0.3 l-11.4 0 1.9 -4.2z m42.3 -79.8 c12 -3 20.2 -7.5 27.8 -15 9.4 -9.3 13.9 -20.4 13.9 -34 0 -9.4 -2.3 -16.3 -7.3 -21.7 -7.5 -8.2 -9.7 -8.7 -36.4 -9.1 l-23.3 -0.4 0 41.8 0 41.7 8.8 -0.6 c4.8 -0.4 12.2 -1.6 16.5 -2.7z"/>
  <path d="M92.8 85.8 c-0.2 -18.3 -0.7 -34.1 -1.2 -35 -0.8 -1.7 0.4 -1.8 18.2 -1.8 l19 0 3.6 4.2 c2 2.3 3.6 4.5 3.6 5 0 0.4 -6.1 0.8 -13.5 0.8 l-13.5 0 -0.2 28.2 -0.3 28.3 -6 1.7 c-10.5 2.9 -9.4 6.3 -9.7 -31.4z"/>
 </g>
</svg>